<svg width="405" height="194" viewBox="0 0 405 194" fill="none" xmlns="http://www.w3.org/2000/svg">
<path fill-rule="evenodd" clip-rule="evenodd" d="M85.4325 0.137867C85.2639 0.204058 85.0012 0.382776 84.8487 0.535224C84.6965 0.687465 84.4388 0.812195 84.2764 0.812195C84.1138 0.812195 83.9808 0.899278 83.9808 1.0056C83.9808 1.11213 83.655 1.31691 83.2568 1.46087C82.8586 1.60484 82.5328 1.78976 82.5328 1.87147C82.5328 1.95338 82.2536 2.08184 81.9123 2.15671C81.571 2.23159 81.2917 2.37101 81.2917 2.46616C81.2917 2.56152 80.7101 2.93405 79.9989 3.29418C78.2703 4.16998 77.4868 4.61036 77.3595 4.7777C77.3014 4.85403 76.9916 4.98228 76.6705 5.06274C76.3497 5.14341 76.0413 5.32854 75.9854 5.47416C75.9296 5.61999 75.6578 5.79602 75.3816 5.86531C75.1053 5.93461 74.8794 6.07527 74.8794 6.17786C74.8794 6.28025 74.6008 6.42546 74.2601 6.50034C73.9194 6.57501 73.5705 6.75539 73.4844 6.90121C73.3984 7.04684 72.9582 7.28637 72.5065 7.43344C72.0545 7.5803 71.569 7.80287 71.4275 7.92802C70.7728 8.50699 70.5614 8.63627 69.8493 8.89379C69.4304 9.04541 69.0876 9.2262 69.0876 9.29591C69.0876 9.36562 68.7619 9.55054 68.3637 9.70671C67.9655 9.86288 67.6397 10.0592 67.6397 10.1425C67.6397 10.2261 67.3605 10.3558 67.0192 10.4307C66.6779 10.5056 66.3986 10.6415 66.3986 10.7323C66.3986 10.8233 66.1194 11.0134 65.7781 11.1547C65.4368 11.2959 65.1575 11.486 65.1575 11.577C65.1575 11.6678 64.8783 11.8037 64.537 11.8786C64.1957 11.9535 63.9164 12.0832 63.9164 12.1668C63.9164 12.2501 63.5906 12.4464 63.1924 12.6026C62.7943 12.7588 62.4685 12.9437 62.4685 13.0134C62.4685 13.0831 62.1228 13.2649 61.7004 13.4178C61.2778 13.5704 60.8157 13.7986 60.6732 13.9248C60.0175 14.5052 59.8117 14.6283 59.1121 14.8593C58.7009 14.995 58.2603 15.2317 58.1327 15.3853C58.0051 15.539 57.6718 15.7221 57.3922 15.7924C57.1125 15.8625 56.8835 16.004 56.8835 16.1066C56.8835 16.209 56.6121 16.3526 56.2804 16.4256C55.9484 16.4984 55.629 16.6831 55.5703 16.8362C55.5115 16.989 55.1781 17.1771 54.8291 17.2536C54.4799 17.3303 54.1945 17.4685 54.1945 17.561C54.1945 17.6534 53.9618 17.7875 53.6774 17.8588C53.393 17.9302 53.1603 18.0727 53.1603 18.1753C53.1603 18.2781 52.8345 18.4699 52.4363 18.6012C52.0381 18.7326 51.7123 18.9185 51.7123 19.0145C51.7123 19.1105 51.4269 19.2516 51.0777 19.3283C50.7287 19.4048 50.3953 19.5929 50.3366 19.7457C50.2778 19.8988 49.9584 20.0835 49.6264 20.1563C49.2947 20.2293 49.0233 20.3559 49.0233 20.4378C49.0233 20.5195 48.6975 20.7045 48.2993 20.8484C47.9011 20.9924 47.5753 21.1935 47.5753 21.2954C47.5753 21.3972 47.203 21.5921 46.7479 21.7284C46.2929 21.8647 45.9205 22.0546 45.9205 22.1503C45.9205 22.2461 45.7855 22.3245 45.6206 22.3245C45.4555 22.3245 45.2462 22.4509 45.1552 22.6056C45.0642 22.7601 44.6408 23.0001 44.214 23.1387C43.7875 23.2775 43.4383 23.4767 43.4383 23.5817C43.4383 23.6866 43.313 23.7725 43.1597 23.7725C43.0064 23.7725 42.673 23.9528 42.4188 24.1735C42.1644 24.394 41.6849 24.6342 41.3529 24.707C41.0209 24.78 40.7493 24.9079 40.7493 24.9914C40.7493 25.0748 40.4235 25.2711 40.0253 25.4273C39.6271 25.5834 39.3014 25.787 39.3014 25.8796C39.3014 25.9721 39.1683 26.0478 39.0058 26.0478C38.8434 26.0478 38.5873 26.1698 38.4369 26.319C38.2868 26.4683 37.8613 26.7238 37.4914 26.8868C37.1216 27.0498 36.8192 27.2461 36.8192 27.323C36.8192 27.4 36.5476 27.5224 36.2156 27.5954C35.8836 27.6683 35.4041 27.9084 35.1497 28.1289C34.8955 28.3496 34.562 28.53 34.4087 28.53C34.2555 28.53 34.1301 28.6158 34.1301 28.7207C34.1301 28.8258 33.7812 29.025 33.3544 29.1638C32.9279 29.3024 32.5043 29.5423 32.4133 29.6968C32.3223 29.8516 32.1129 29.9779 31.9479 29.9779C31.783 29.9779 31.6479 30.0563 31.6479 30.1521C31.6479 30.2479 31.2756 30.4378 30.8205 30.5741C30.3655 30.7104 29.9931 30.9052 29.9931 31.007C29.9931 31.109 29.6674 31.31 29.2692 31.454C28.871 31.598 28.5452 31.7829 28.5452 31.8646C28.5452 31.9465 28.2738 32.0731 27.942 32.1461C27.61 32.2189 27.2907 32.4037 27.2319 32.5567C27.1732 32.7096 26.8397 32.8976 26.4908 32.9741C26.1416 33.0509 25.8562 33.1975 25.8562 33.2999C25.8562 33.4025 25.6234 33.5448 25.339 33.6162C25.0546 33.6876 24.8219 33.8231 24.8219 33.9172C24.8219 34.0111 24.4961 34.2059 24.0979 34.3499C23.6998 34.4939 23.374 34.6788 23.374 34.7605C23.374 34.8424 23.0885 34.9721 22.7394 35.0488C22.3904 35.1254 22.057 35.3134 21.9982 35.4663C21.9395 35.6193 21.6201 35.8041 21.2881 35.8769C20.9563 35.9499 20.6849 36.086 20.6849 36.1797C20.6849 36.2732 20.4057 36.4471 20.0644 36.5661C19.7231 36.685 19.4438 36.8656 19.4438 36.9674C19.4438 37.0689 19.0566 37.2681 18.5835 37.41C18.1103 37.5517 17.6016 37.7759 17.4529 37.9081C16.7914 38.4968 16.5783 38.6278 15.8616 38.8869C15.4427 39.0386 15.1 39.2367 15.1 39.3277C15.1 39.4185 14.9575 39.493 14.7833 39.493C14.6089 39.493 14.4161 39.6241 14.3545 39.7847C14.2931 39.945 13.9991 40.1373 13.7013 40.212C13.4034 40.2869 12.533 40.714 11.7668 41.1617C11.0007 41.6091 10.2736 41.9752 10.1513 41.9752C10.0289 41.9752 9.92876 42.0509 9.92876 42.1434C9.92876 42.236 9.60298 42.4396 9.20479 42.5957C8.80661 42.7519 8.48082 42.9368 8.48082 43.0065C8.48082 43.0763 8.13517 43.2581 7.71278 43.4109C7.29019 43.5636 6.8281 43.7917 6.68558 43.9179C6.02552 44.5023 5.81929 44.6229 5.05622 44.8711C4.60757 45.0171 4.16595 45.2629 4.07493 45.4174C3.98392 45.5721 3.77459 45.6985 3.60952 45.6985C3.44466 45.6985 3.30959 45.7767 3.30959 45.8722C3.30959 45.9678 2.93726 46.1689 2.48219 46.319C2.02712 46.4692 1.65479 46.6589 1.65479 46.7408C1.65479 46.8225 1.35238 47.0118 0.982534 47.1613C0.612687 47.3109 0.24181 47.5316 0.158243 47.6518C0.0746756 47.7719 0.00496741 69.947 0.00310577 96.9292L0 145.988L0.775685 146.24C1.20241 146.379 1.6217 146.612 1.70775 146.757C1.7938 146.903 2.14275 147.084 2.48343 147.158C2.82412 147.233 3.10274 147.359 3.10274 147.439C3.10274 147.519 3.35861 147.698 3.67157 147.837C4.39782 148.159 5.45027 148.772 5.587 148.952C5.64512 149.028 5.94071 149.153 6.24436 149.229C6.54781 149.305 6.84298 149.49 6.90049 149.639C6.95799 149.789 7.2904 149.974 7.63936 150.051C7.98852 150.128 8.27397 150.269 8.27397 150.365C8.27397 150.461 8.59976 150.647 8.99794 150.778C9.39613 150.909 9.72191 151.101 9.72191 151.204C9.72191 151.306 9.95462 151.449 10.239 151.52C10.5235 151.592 10.7562 151.726 10.7562 151.818C10.7562 151.911 11.0348 152.047 11.3755 152.122C11.7161 152.197 12.0651 152.377 12.1511 152.523C12.2372 152.669 12.6567 152.901 13.0832 153.04C13.5099 153.179 13.8589 153.378 13.8589 153.483C13.8589 153.588 13.9871 153.674 14.1439 153.674C14.3005 153.674 14.5407 153.809 14.6776 153.973C14.8143 154.138 15.2653 154.385 15.6796 154.522C16.0941 154.659 16.5488 154.873 16.6902 154.998C17.3449 155.577 17.5563 155.706 18.2685 155.964C18.6874 156.115 19.0301 156.296 19.0301 156.366C19.0301 156.435 19.3559 156.62 19.7541 156.777C20.1523 156.933 20.4781 157.126 20.4781 157.206C20.4781 157.287 20.7331 157.416 21.0448 157.494C21.3566 157.573 21.659 157.71 21.7171 157.8C21.8712 158.039 24.2144 159.259 24.5187 159.259C24.6612 159.259 24.8312 159.398 24.8968 159.569C24.9622 159.74 25.1582 159.879 25.3326 159.879C25.5068 159.879 25.6493 159.957 25.6493 160.053C25.6493 160.149 26.0216 160.35 26.4767 160.5C26.9318 160.65 27.3041 160.836 27.3041 160.913C27.3041 161.082 29.3865 162.155 29.7153 162.155C29.8438 162.155 29.9991 162.286 30.0604 162.445C30.1218 162.605 30.4575 162.799 30.8065 162.875C31.1556 162.952 31.4411 163.099 31.4411 163.201C31.4411 163.304 31.6738 163.446 31.9582 163.518C32.2426 163.589 32.4753 163.724 32.4753 163.818C32.4753 163.912 32.8011 164.107 33.1993 164.251C33.5975 164.395 33.9233 164.58 33.9233 164.662C33.9233 164.744 34.2019 164.872 34.5426 164.947C34.8833 165.022 35.2322 165.193 35.3183 165.327C35.4043 165.462 35.9866 165.836 36.6123 166.159C38.2094 166.984 38.9743 167.41 39.0945 167.544C39.1514 167.608 39.5003 167.782 39.8702 167.931C40.2398 168.081 40.5424 168.27 40.5424 168.352C40.5424 168.434 40.9148 168.624 41.3698 168.774C41.8249 168.924 42.1972 169.125 42.1972 169.221C42.1972 169.316 42.3398 169.394 42.5139 169.394C42.6883 169.394 42.8821 169.528 42.945 169.692C43.0079 169.856 43.3316 170.049 43.6646 170.123C43.9977 170.196 44.3886 170.364 44.5336 170.497C44.6786 170.63 45.3525 171.018 46.0312 171.359C46.7099 171.701 47.3116 172.027 47.3685 172.084C47.4254 172.141 47.7511 172.327 48.0924 172.497C48.4337 172.667 48.7595 172.853 48.8166 172.91C49.1159 173.21 52.5782 174.979 52.8657 174.979C53.0035 174.979 53.1696 175.119 53.2351 175.29C53.3005 175.46 53.4966 175.6 53.671 175.6C53.8451 175.6 53.9876 175.678 53.9876 175.774C53.9876 175.869 54.3552 176.069 54.8043 176.217C55.2534 176.365 55.6693 176.613 55.7285 176.767C55.7879 176.921 55.9788 177.048 56.1532 177.048C56.3273 177.048 56.4698 177.133 56.4698 177.238C56.4698 177.343 56.7501 177.49 57.0925 177.565C57.435 177.641 57.8305 177.814 57.9716 177.95C58.1126 178.086 58.7866 178.473 59.4692 178.81C60.1518 179.147 60.7806 179.532 60.8666 179.667C60.9527 179.801 61.3016 179.973 61.6423 180.047C61.983 180.122 62.2616 180.259 62.2616 180.351C62.2616 180.444 62.4772 180.573 62.7407 180.639C63.004 180.706 63.4371 180.949 63.7032 181.179C63.969 181.41 64.3119 181.598 64.4652 181.598C64.6185 181.598 64.7438 181.684 64.7438 181.789C64.7438 181.894 65.0293 182.042 65.3784 182.119C65.7274 182.195 66.0608 182.383 66.1196 182.536C66.1783 182.689 66.4977 182.874 66.8297 182.947C67.1615 183.02 67.4328 183.158 67.4328 183.254C67.4328 183.35 67.7586 183.536 68.1568 183.667C68.555 183.798 68.8808 183.988 68.8808 184.088C68.8808 184.189 69.2531 184.382 69.7082 184.519C70.1633 184.655 70.5356 184.845 70.5356 184.941C70.5356 185.036 70.6781 185.115 70.8523 185.115C71.0266 185.115 71.2176 185.241 71.2769 185.396C71.3361 185.55 71.7521 185.798 72.2011 185.946C72.6502 186.094 73.0178 186.276 73.0178 186.35C73.0178 186.425 73.3436 186.613 73.7418 186.77C74.1399 186.926 74.4657 187.122 74.4657 187.205C74.4657 187.289 74.745 187.419 75.0863 187.494C75.4276 187.569 75.7068 187.704 75.7068 187.795C75.7068 187.886 76.0092 188.084 76.3791 188.235C76.7489 188.387 77.1744 188.631 77.3246 188.778C77.475 188.925 77.731 189.045 77.8934 189.045C78.056 189.045 78.189 189.121 78.189 189.213C78.189 189.306 78.5148 189.509 78.913 189.666C79.3112 189.822 79.637 190.011 79.637 190.085C79.637 190.16 80.0093 190.332 80.4644 190.469C80.9194 190.605 81.2917 190.791 81.2917 190.881C81.2917 190.972 81.8058 191.306 82.4338 191.624C83.062 191.942 83.6217 192.276 83.6777 192.366C83.7338 192.457 84.1223 192.644 84.5409 192.783C85.2635 193.021 85.4707 193.146 86.1451 193.751C86.5399 194.105 87.2205 194.076 87.3653 193.699C87.4306 193.528 87.6267 193.389 87.8011 193.389C87.9753 193.389 88.1178 193.311 88.1178 193.215C88.1178 193.12 88.4901 192.918 88.9452 192.768C89.4002 192.618 89.7726 192.423 89.7726 192.335C89.7726 192.247 90.0984 192.057 90.4965 191.913C90.8947 191.769 91.2205 191.584 91.2205 191.502C91.2205 191.42 91.4998 191.292 91.8411 191.217C92.1824 191.142 92.4616 191.003 92.4616 190.907C92.4616 190.812 93.0435 190.44 93.7544 190.079C95.4831 189.204 96.2666 188.763 96.3938 188.596C96.4519 188.52 96.7618 188.391 97.0828 188.311C97.4036 188.23 97.7121 188.045 97.7679 187.899C97.8238 187.754 98.0956 187.578 98.3717 187.508C98.6481 187.439 98.8739 187.298 98.8739 187.196C98.8739 187.093 99.1526 186.948 99.4932 186.873C99.8339 186.799 100.183 186.618 100.269 186.472C100.355 186.327 100.795 186.087 101.247 185.94C101.699 185.793 102.184 185.571 102.326 185.446C102.981 184.867 103.192 184.737 103.904 184.48C104.323 184.328 104.666 184.147 104.666 184.078C104.666 184.008 104.991 183.823 105.39 183.667C105.788 183.511 106.114 183.314 106.114 183.231C106.114 183.148 106.393 183.018 106.734 182.943C107.076 182.868 107.355 182.732 107.355 182.641C107.355 182.55 107.634 182.36 107.975 182.219C108.317 182.078 108.596 181.888 108.596 181.797C108.596 181.706 108.875 181.57 109.216 181.495C109.558 181.42 109.837 181.29 109.837 181.207C109.837 181.123 110.163 180.927 110.561 180.771C110.959 180.615 111.285 180.43 111.285 180.36C111.285 180.291 111.631 180.109 112.053 179.956C112.476 179.803 112.938 179.575 113.08 179.449C113.736 178.868 113.942 178.745 114.641 178.514C115.052 178.379 115.493 178.142 115.621 177.988C115.748 177.835 116.082 177.652 116.361 177.581C116.641 177.511 116.87 177.37 116.87 177.267C116.87 177.165 117.141 177.021 117.473 176.948C117.805 176.875 118.124 176.691 118.183 176.537C118.242 176.385 118.575 176.197 118.924 176.12C119.273 176.043 119.559 175.905 119.559 175.813C119.559 175.72 119.792 175.586 120.076 175.515C120.36 175.443 120.593 175.301 120.593 175.198C120.593 175.096 120.919 174.904 121.317 174.772C121.715 174.641 122.041 174.455 122.041 174.359C122.041 174.263 122.326 174.122 122.676 174.045C123.025 173.969 123.358 173.781 123.417 173.628C123.476 173.475 123.795 173.29 124.127 173.217C124.459 173.144 124.73 173.009 124.73 172.917C124.73 172.824 124.946 172.695 125.209 172.629C125.472 172.562 125.906 172.32 126.172 172.089C126.437 171.858 126.78 171.67 126.934 171.67C127.087 171.67 127.212 171.584 127.212 171.479C127.212 171.374 127.491 171.228 127.832 171.153C128.172 171.078 128.521 170.898 128.607 170.752C128.693 170.606 129.113 170.374 129.539 170.235C129.966 170.096 130.315 169.897 130.315 169.792C130.315 169.687 130.44 169.601 130.594 169.601C130.747 169.601 131.08 169.421 131.335 169.2C131.589 168.98 132.068 168.739 132.4 168.667C132.732 168.594 133.004 168.466 133.004 168.382C133.004 168.299 133.33 168.103 133.728 167.946C134.126 167.79 134.452 167.587 134.452 167.494C134.452 167.402 134.585 167.326 134.748 167.326C134.91 167.326 135.166 167.204 135.316 167.055C135.467 166.905 135.892 166.65 136.262 166.487C136.632 166.324 136.934 166.128 136.934 166.051C136.934 165.974 137.213 165.849 137.555 165.774C137.896 165.7 138.175 165.559 138.175 165.461C138.175 165.364 138.501 165.166 138.899 165.022C139.297 164.878 139.623 164.693 139.623 164.611C139.623 164.529 139.972 164.349 140.399 164.21C140.826 164.071 141.249 163.831 141.34 163.677C141.431 163.522 141.64 163.396 141.805 163.396C141.97 163.396 142.105 163.317 142.105 163.222C142.105 163.126 142.478 162.936 142.933 162.8C143.388 162.663 143.76 162.468 143.76 162.367C143.76 162.265 144.086 162.064 144.484 161.92C144.882 161.776 145.208 161.591 145.208 161.509C145.208 161.427 145.48 161.301 145.811 161.228C146.143 161.155 146.463 160.97 146.521 160.817C146.58 160.664 146.914 160.476 147.263 160.399C147.612 160.323 147.897 160.176 147.897 160.074C147.897 159.971 148.13 159.829 148.414 159.757C148.699 159.686 148.931 159.551 148.931 159.456C148.931 159.363 149.257 159.168 149.655 159.024C150.054 158.88 150.379 158.695 150.379 158.613C150.379 158.531 150.665 158.402 151.014 158.325C151.363 158.248 151.696 158.06 151.755 157.907C151.814 157.754 152.133 157.57 152.465 157.497C152.797 157.424 153.068 157.288 153.068 157.194C153.068 157.1 153.348 156.926 153.689 156.808C154.03 156.689 154.31 156.505 154.31 156.4C154.31 156.296 154.728 156.092 155.24 155.949C155.752 155.806 156.171 155.608 156.171 155.509C156.171 155.41 156.314 155.329 156.488 155.329C156.662 155.329 156.853 155.202 156.913 155.048C156.972 154.893 157.388 154.646 157.837 154.498C158.286 154.349 158.653 154.15 158.653 154.054C158.653 153.959 158.796 153.881 158.97 153.881C159.144 153.881 159.337 153.749 159.399 153.589C159.46 153.429 159.754 153.236 160.052 153.162C160.35 153.087 161.22 152.66 161.987 152.212C162.753 151.765 163.48 151.398 163.602 151.398C163.724 151.398 163.825 151.323 163.825 151.23C163.825 151.138 164.15 150.934 164.549 150.778C164.947 150.622 165.273 150.437 165.273 150.367C165.273 150.297 165.618 150.116 166.041 149.963C166.463 149.81 166.925 149.582 167.068 149.456C167.728 148.871 167.934 148.751 168.697 148.503C169.146 148.357 169.587 148.111 169.678 147.956C169.769 147.802 169.979 147.675 170.144 147.675C170.309 147.675 170.444 147.597 170.444 147.501C170.444 147.406 170.816 147.205 171.271 147.055C171.726 146.904 172.099 146.709 172.099 146.621C172.099 146.533 172.424 146.343 172.823 146.199C173.221 146.055 173.547 145.863 173.547 145.772C173.547 145.681 173.686 145.607 173.857 145.607C174.132 145.607 174.166 140.054 174.159 96.842L174.152 48.0772L173.254 47.5084C172.759 47.1957 172.251 46.9396 172.123 46.9396C171.996 46.9396 171.892 46.8539 171.892 46.7491C171.892 46.6444 171.606 46.4961 171.257 46.4193C170.908 46.3428 170.575 46.1548 170.516 46.0019C170.457 45.8489 170.138 45.6641 169.806 45.5913C169.474 45.5183 169.203 45.3803 169.203 45.2844C169.203 45.1884 168.877 45.0024 168.479 44.8711C168.081 44.7397 167.755 44.548 167.755 44.4452C167.755 44.3426 167.522 44.2001 167.238 44.1287C166.953 44.0573 166.72 43.9233 166.72 43.8308C166.72 43.7384 166.442 43.6017 166.101 43.5268C165.76 43.4521 165.412 43.2717 165.325 43.1259C165.239 42.9803 164.82 42.7476 164.393 42.609C163.967 42.4702 163.618 42.271 163.618 42.1659C163.618 42.061 163.489 41.9752 163.333 41.9752C163.176 41.9752 162.932 41.836 162.791 41.666C162.65 41.4957 162.173 41.2483 161.731 41.1159C161.29 40.9838 160.929 40.8199 160.929 40.7519C160.929 40.6838 160.626 40.495 160.256 40.332C159.887 40.169 159.461 39.9135 159.311 39.7642C159.161 39.615 158.904 39.493 158.742 39.493C158.58 39.493 158.447 39.4173 158.447 39.3248C158.447 39.2322 158.121 39.0286 157.723 38.8725C157.324 38.7163 156.999 38.52 156.999 38.4366C156.999 38.3531 156.719 38.2234 156.378 38.1485C156.037 38.0736 155.757 37.9325 155.757 37.8351C155.757 37.7379 155.432 37.5403 155.033 37.3964C154.635 37.2524 154.31 37.0675 154.31 36.9854C154.31 36.9033 153.961 36.7227 153.534 36.5839C153.107 36.4453 152.684 36.2053 152.593 36.0508C152.502 35.8961 152.292 35.7697 152.127 35.7697C151.962 35.7697 151.827 35.6915 151.827 35.596C151.827 35.5004 151.455 35.2993 151 35.1492C150.545 34.999 150.173 34.8039 150.173 34.7158C150.173 34.6275 149.847 34.4376 149.449 34.2936C149.05 34.1497 148.725 33.9647 148.725 33.883C148.725 33.8011 148.453 33.6745 148.121 33.6015C147.789 33.5287 147.47 33.344 147.411 33.1909C147.353 33.0381 147.019 32.85 146.67 32.7735C146.321 32.6968 146.036 32.5501 146.036 32.4477C146.036 32.3451 145.803 32.2028 145.518 32.1314C145.234 32.0601 145.001 31.9246 145.001 31.8305C145.001 31.7366 144.676 31.5417 144.277 31.3978C143.879 31.2538 143.553 31.0689 143.553 30.9872C143.553 30.9052 143.275 30.777 142.934 30.7021C142.593 30.6274 142.244 30.4562 142.158 30.3215C142.072 30.1871 141.467 29.811 140.813 29.4856C140.158 29.1605 139.623 28.8198 139.623 28.7286C139.623 28.6376 139.344 28.5014 139.003 28.4266C138.661 28.3517 138.382 28.2232 138.382 28.1413C138.382 28.0596 138.056 27.8747 137.658 27.7307C137.26 27.5868 136.934 27.3969 136.934 27.3085C136.934 27.2204 136.562 27.0254 136.107 26.8752C135.652 26.725 135.279 26.524 135.279 26.4284C135.279 26.3328 135.137 26.2547 134.963 26.2547C134.788 26.2547 134.596 26.1254 134.536 25.9675C134.475 25.8097 134.013 25.5648 133.508 25.4235C133.003 25.2823 132.59 25.0969 132.59 25.0117C132.59 24.9267 132.311 24.7411 131.97 24.5999C131.629 24.4586 131.349 24.2685 131.349 24.1775C131.349 24.0867 131.07 23.9508 130.729 23.8759C130.387 23.801 130.108 23.6767 130.108 23.5997C130.108 23.5228 129.806 23.3281 129.436 23.1672C129.066 23.0065 128.717 22.8207 128.66 22.7548C128.603 22.6888 128.022 22.3555 127.368 22.0142C126.714 21.6729 126.179 21.336 126.179 21.2654C126.178 21.1949 125.765 21.0216 125.26 20.8803C124.756 20.739 124.293 20.4941 124.233 20.3363C124.172 20.1785 123.98 20.0492 123.806 20.0492C123.632 20.0492 123.489 19.9633 123.489 19.8585C123.489 19.7534 123.14 19.5542 122.713 19.4154C122.287 19.2768 121.869 19.0472 121.785 18.9053C121.701 18.7634 121.376 18.583 121.063 18.5044C120.75 18.4258 120.446 18.2992 120.388 18.2229C120.242 18.0309 119.159 17.417 118.473 17.1376C118.16 17.0101 117.904 16.8294 117.904 16.7359C117.904 16.6422 117.633 16.5061 117.301 16.433C116.969 16.3602 116.65 16.1755 116.591 16.0224C116.532 15.8696 116.199 15.6816 115.85 15.605C115.5 15.5283 115.215 15.3901 115.215 15.2976C115.215 15.2052 114.999 15.0755 114.736 15.0095C114.473 14.9433 114.039 14.7005 113.773 14.4698C113.508 14.2392 113.165 14.0505 113.011 14.0505C112.858 14.0505 112.733 13.9649 112.733 13.86C112.733 13.7554 112.454 13.6085 112.114 13.5336C111.773 13.459 111.424 13.2786 111.338 13.1328C111.252 12.9871 110.833 12.7544 110.406 12.6158C109.979 12.477 109.63 12.2778 109.63 12.1728C109.63 12.0679 109.505 11.9821 109.351 11.9821C109.198 11.9821 108.865 11.8017 108.611 11.581C108.356 11.3605 107.877 11.1203 107.545 11.0475C107.213 10.9745 106.941 10.8293 106.941 10.7246C106.941 10.6197 106.806 10.5341 106.641 10.5341C106.476 10.5341 106.267 10.4077 106.176 10.253C106.085 10.0985 105.661 9.85854 105.235 9.71995C104.808 9.58115 104.459 9.39933 104.459 9.31556C104.459 9.23179 104.133 9.03549 103.735 8.87931C103.337 8.72314 103.011 8.52684 103.011 8.44348C103.011 8.35992 102.732 8.23022 102.39 8.15534C102.049 8.08046 101.77 7.93939 101.77 7.84197C101.77 7.74475 101.444 7.54721 101.046 7.40324C100.648 7.25927 100.322 7.07435 100.322 6.99223C100.322 6.91011 99.9729 6.72953 99.5462 6.59073C99.1197 6.45215 98.696 6.2122 98.605 6.05768C98.514 5.90296 98.3047 5.77658 98.1396 5.77658C97.9748 5.77658 97.8397 5.69094 97.8397 5.58607C97.8397 5.4814 97.5594 5.33413 97.2171 5.25904C96.8745 5.18375 96.4643 4.9922 96.3053 4.83314C95.9292 4.45709 94.1294 3.50123 93.7974 3.50123C93.656 3.50123 93.4899 3.3703 93.4286 3.21041C93.3672 3.05051 93.0315 2.8569 92.6825 2.78037C92.3334 2.70362 92.0479 2.55697 92.0479 2.45458C92.0479 2.35198 91.8152 2.20967 91.5308 2.13831C91.2464 2.06694 91.0137 1.93146 91.0137 1.83734C91.0137 1.74343 90.6879 1.54858 90.2897 1.40461C89.8915 1.26064 89.5657 1.07572 89.5657 0.994015C89.5657 0.912103 89.2943 0.785511 88.9625 0.712493C88.6305 0.639682 88.3079 0.446072 88.245 0.282455C88.1627 0.0681588 87.7959 -0.0106517 86.9348 0.00113869C86.2772 0.0100332 85.601 0.0716749 85.4325 0.137867ZM87.9109 14.9069C87.9109 14.9867 88.1823 15.1115 88.5141 15.1845C88.8461 15.2573 89.1655 15.442 89.2242 15.5951C89.283 15.7479 89.6164 15.936 89.9654 16.0125C90.3145 16.0893 90.6 16.2285 90.6 16.3222C90.6 16.4157 90.8558 16.5964 91.1688 16.7239C91.8055 16.9833 92.9237 17.6065 93.0822 17.7904C93.139 17.8564 93.488 18.0421 93.8578 18.2028C94.2277 18.3638 94.5301 18.5657 94.5301 18.6517C94.5301 18.7377 94.6302 18.8081 94.7527 18.8081C94.8749 18.8081 95.602 19.1742 96.3682 19.6216C97.1343 20.0692 98.0047 20.4964 98.3026 20.5713C98.6005 20.6459 98.8944 20.8383 98.9558 20.9986C99.0175 21.1591 99.2103 21.2903 99.3846 21.2903C99.5588 21.2903 99.7013 21.3647 99.7013 21.4555C99.7013 21.5466 100.044 21.7447 100.463 21.8963C101.175 22.1539 101.387 22.2831 102.041 22.8621C102.183 22.9873 102.639 23.2018 103.055 23.3391C103.471 23.4765 103.841 23.6564 103.877 23.7389C103.912 23.8215 104.5 24.1642 105.183 24.5008C105.865 24.8373 106.494 25.2227 106.58 25.3571C106.666 25.4918 107.015 25.6631 107.356 25.7377C107.697 25.8126 107.975 25.9493 107.975 26.0418C107.975 26.1343 108.191 26.264 108.454 26.3299C108.718 26.3961 109.151 26.639 109.417 26.8696C109.683 27.1003 110.026 27.2889 110.179 27.2889C110.332 27.2889 110.457 27.3745 110.457 27.4794C110.457 27.5841 110.743 27.7324 111.092 27.8091C111.441 27.8857 111.774 28.0737 111.833 28.2265C111.892 28.3796 112.211 28.5643 112.543 28.6371C112.875 28.7102 113.147 28.8368 113.147 28.9187C113.147 29.0004 113.472 29.1853 113.871 29.3293C114.269 29.4732 114.594 29.6743 114.594 29.7763C114.594 29.878 114.967 30.0729 115.422 30.2092C115.877 30.3455 116.249 30.5354 116.249 30.6312C116.249 30.7269 116.392 30.8053 116.566 30.8053C116.74 30.8053 116.933 30.9365 116.995 31.097C117.056 31.2573 117.356 31.4493 117.66 31.5233C117.965 31.5974 118.561 31.8849 118.986 32.1625C119.41 32.4399 119.852 32.667 119.968 32.667C120.084 32.667 120.179 32.7526 120.179 32.8575C120.179 32.9622 120.459 33.1092 120.8 33.1841C121.141 33.259 121.42 33.3949 121.42 33.4857C121.42 33.5767 121.723 33.7747 122.093 33.9259C122.463 34.0771 122.888 34.3211 123.038 34.4682C123.189 34.6151 123.445 34.7355 123.607 34.7355C123.77 34.7355 123.903 34.8112 123.903 34.9036C123.903 34.9963 124.228 35.1998 124.627 35.356C125.025 35.5122 125.351 35.7085 125.351 35.7918C125.351 35.8754 125.631 36.0053 125.973 36.0804C126.316 36.1557 126.726 36.3472 126.885 36.5063C127.261 36.8824 129.061 37.8382 129.393 37.8382C129.534 37.8382 129.7 37.9691 129.762 38.129C129.823 38.2889 130.159 38.4825 130.508 38.5591C130.857 38.6358 131.142 38.7825 131.142 38.8849C131.142 38.9875 131.375 39.1298 131.66 39.2011C131.944 39.2725 132.177 39.408 132.177 39.5021C132.177 39.596 132.502 39.7909 132.901 39.9348C133.299 40.0788 133.625 40.2637 133.625 40.3454C133.625 40.4273 133.896 40.5539 134.228 40.6269C134.56 40.6998 134.879 40.8845 134.938 41.0375C134.997 41.1904 135.33 41.3784 135.679 41.455C136.028 41.5317 136.314 41.6709 136.314 41.7646C136.314 41.8581 136.57 42.0389 136.882 42.1663C137.568 42.4458 138.652 43.0597 138.798 43.2517C138.856 43.328 139.166 43.4562 139.487 43.5367C139.808 43.6174 140.114 43.7975 140.168 43.9374C140.221 44.0772 140.633 44.3128 141.082 44.4609C141.531 44.6092 141.899 44.8086 141.899 44.9042C141.899 44.9997 142.027 45.0779 142.184 45.0779C142.34 45.0779 142.58 45.2128 142.717 45.3777C142.854 45.5425 143.302 45.7883 143.713 45.9239C144.407 46.1527 144.58 46.2553 145.267 46.8448C145.405 46.9634 145.844 47.1909 146.242 47.3502C146.641 47.5096 147.013 47.6921 147.07 47.7556C147.127 47.8191 147.452 48.0104 147.794 48.1807C148.135 48.3509 148.461 48.5371 148.518 48.594C148.575 48.651 148.901 48.8426 149.242 49.0197C150.88 49.8692 152.148 50.5708 152.241 50.6794C152.298 50.7454 152.647 50.9311 153.017 51.0919C153.386 51.2528 153.689 51.4398 153.689 51.5076C153.689 51.5755 154.061 51.7538 154.516 51.904C154.971 52.0541 155.344 52.2525 155.344 52.3448C155.344 52.5311 157.418 53.5588 157.794 53.5588C157.925 53.5588 158.033 53.6407 158.033 53.741C158.033 53.8411 158.568 54.1892 159.222 54.5144C159.876 54.8398 160.486 55.2231 160.577 55.3666C160.668 55.51 160.877 55.6272 161.042 55.6272C161.304 55.6272 161.342 60.9451 161.342 96.6285V137.63L160.793 138.102C160.491 138.361 160.119 138.574 159.966 138.574C159.813 138.574 159.688 138.659 159.688 138.764C159.688 138.869 159.409 139.016 159.068 139.091C158.728 139.165 158.379 139.346 158.293 139.492C158.207 139.637 157.787 139.87 157.361 140.008C156.934 140.147 156.585 140.346 156.585 140.452C156.585 140.556 156.46 140.642 156.306 140.642C156.153 140.642 155.82 140.823 155.565 141.043C155.311 141.264 154.831 141.504 154.499 141.577C154.167 141.65 153.896 141.772 153.896 141.849C153.896 141.926 153.593 142.122 153.224 142.285C152.854 142.448 152.428 142.704 152.278 142.853C152.128 143.002 151.872 143.124 151.709 143.124C151.547 143.124 151.414 143.2 151.414 143.293C151.414 143.385 151.088 143.589 150.69 143.745C150.291 143.901 149.966 144.095 149.966 144.175C149.966 144.255 149.711 144.385 149.399 144.463C149.087 144.541 148.785 144.679 148.727 144.769C148.573 145.007 146.229 146.227 145.925 146.227C145.783 146.227 145.613 146.367 145.547 146.537C145.482 146.708 145.286 146.848 145.111 146.848C144.937 146.848 144.794 146.926 144.794 147.022C144.794 147.118 144.422 147.308 143.967 147.444C143.512 147.58 143.14 147.775 143.14 147.877C143.14 147.979 142.814 148.18 142.416 148.324C142.018 148.468 141.692 148.653 141.692 148.734C141.692 148.816 141.42 148.943 141.089 149.016C140.757 149.089 140.437 149.273 140.378 149.427C140.32 149.579 139.986 149.767 139.637 149.844C139.288 149.921 139.003 150.067 139.003 150.17C139.003 150.272 138.77 150.415 138.486 150.486C138.201 150.557 137.968 150.693 137.968 150.787C137.968 150.881 137.643 151.076 137.244 151.22C136.846 151.364 136.52 151.549 136.52 151.63C136.52 151.712 136.235 151.842 135.886 151.919C135.537 151.995 135.205 152.181 135.147 152.33C135.09 152.48 134.817 152.659 134.541 152.728C134.264 152.798 134.038 152.938 134.038 153.041C134.038 153.143 133.76 153.288 133.419 153.363C133.078 153.438 132.729 153.618 132.643 153.764C132.557 153.91 132.12 154.148 131.671 154.294C130.908 154.543 130.702 154.663 130.042 155.247C129.899 155.374 129.437 155.602 129.015 155.754C128.592 155.907 128.247 156.107 128.247 156.198C128.247 156.288 128.104 156.363 127.93 156.363C127.755 156.363 127.559 156.502 127.494 156.673C127.428 156.844 127.258 156.983 127.116 156.983C126.812 156.983 124.468 158.203 124.314 158.442C124.256 158.532 123.954 158.669 123.642 158.748C123.33 158.826 123.075 158.955 123.075 159.036C123.075 159.116 122.75 159.309 122.351 159.466C121.953 159.622 121.627 159.825 121.627 159.918C121.627 160.01 121.494 160.086 121.332 160.086C121.169 160.086 120.913 160.206 120.763 160.353C120.613 160.5 120.187 160.745 119.817 160.896C119.448 161.047 119.145 161.238 119.145 161.32C119.145 161.401 118.784 161.577 118.342 161.709C117.901 161.841 117.424 162.089 117.283 162.259C117.142 162.429 116.898 162.568 116.741 162.568C116.584 162.568 116.456 162.646 116.456 162.742C116.456 162.838 116.089 163.037 115.639 163.185C115.19 163.333 114.778 163.572 114.723 163.716C114.667 163.86 114.337 164.04 113.988 164.117C113.639 164.193 113.353 164.331 113.353 164.424C113.353 164.516 113.121 164.65 112.836 164.722C112.552 164.793 112.319 164.936 112.319 165.038C112.319 165.141 111.993 165.333 111.595 165.464C111.197 165.596 110.871 165.781 110.871 165.877C110.871 165.973 110.6 166.111 110.268 166.184C109.936 166.257 109.617 166.442 109.558 166.595C109.499 166.748 109.166 166.936 108.817 167.012C108.468 167.089 108.182 167.227 108.182 167.32C108.182 167.412 107.967 167.542 107.703 167.608C107.44 167.674 107.007 167.917 106.741 168.148C106.475 168.378 106.132 168.567 105.979 168.567C105.825 168.567 105.7 168.653 105.7 168.757C105.7 168.862 105.421 169.009 105.081 169.084C104.74 169.159 104.391 169.339 104.305 169.485C104.219 169.63 103.8 169.863 103.373 170.002C102.946 170.14 102.597 170.34 102.597 170.445C102.597 170.55 102.472 170.635 102.319 170.635C102.165 170.635 101.832 170.816 101.578 171.037C101.323 171.257 100.844 171.497 100.512 171.57C100.18 171.643 99.9082 171.788 99.9082 171.893C99.9082 171.998 99.7731 172.083 99.6082 172.083C99.4432 172.083 99.2338 172.21 99.1428 172.364C99.0518 172.519 98.6284 172.759 98.2017 172.898C97.7751 173.036 97.426 173.218 97.426 173.302C97.426 173.386 97.1002 173.582 96.702 173.738C96.3038 173.894 95.978 174.091 95.978 174.174C95.978 174.258 95.6988 174.387 95.3575 174.462C95.0162 174.537 94.7361 174.661 94.7353 174.737C94.7336 174.883 93.7381 175.393 93.4547 175.393C93.247 175.393 93.2398 135.863 93.4472 135.558C93.5308 135.435 93.9017 135.203 94.2715 135.042C94.6414 134.881 94.9438 134.686 94.9438 134.61C94.9438 134.533 95.2154 134.41 95.5474 134.337C95.8794 134.264 96.3588 134.024 96.6133 133.804C96.8675 133.583 97.2009 133.403 97.3542 133.403C97.5075 133.403 97.6328 133.317 97.6328 133.212C97.6328 133.107 97.982 132.908 98.4085 132.769C98.8353 132.63 99.2587 132.39 99.3497 132.236C99.4407 132.081 99.65 131.955 99.8151 131.955C99.98 131.955 100.115 131.876 100.115 131.78C100.115 131.685 100.487 131.495 100.942 131.358C101.397 131.222 101.77 131.027 101.77 130.926C101.77 130.824 102.096 130.623 102.494 130.479C102.892 130.335 103.218 130.15 103.218 130.068C103.218 129.986 103.497 129.858 103.838 129.783C104.18 129.708 104.459 129.568 104.459 129.473C104.459 129.378 105.041 129.005 105.752 128.645C107.48 127.769 108.264 127.329 108.391 127.162C108.449 127.085 108.759 126.957 109.08 126.877C109.401 126.796 109.709 126.611 109.765 126.465C109.821 126.319 110.093 126.143 110.369 126.074C110.645 126.005 110.871 125.864 110.871 125.762C110.871 125.659 111.15 125.514 111.49 125.439C111.831 125.364 112.18 125.184 112.266 125.038C112.352 124.893 112.79 124.654 113.238 124.508C114.001 124.26 114.208 124.139 114.868 123.555C115.01 123.429 115.472 123.201 115.895 123.048C116.317 122.895 116.663 122.696 116.663 122.605C116.663 122.514 116.805 122.44 116.98 122.44C117.154 122.44 117.35 122.3 117.415 122.129C117.481 121.959 117.651 121.819 117.794 121.819C118.098 121.819 120.441 120.599 120.595 120.36C120.653 120.271 120.956 120.133 121.267 120.055C121.579 119.977 121.834 119.847 121.834 119.767C121.834 119.687 122.16 119.493 122.558 119.337C122.956 119.181 123.282 118.996 123.282 118.926C123.282 118.856 123.608 118.682 124.006 118.538L124.73 118.276V96.6899V75.104L124.111 74.9679C123.77 74.8932 123.421 74.7128 123.335 74.567C123.249 74.4214 122.83 74.1887 122.403 74.0501C121.977 73.9113 121.627 73.7121 121.627 73.607C121.627 73.5021 121.502 73.4163 121.349 73.4163C121.195 73.4163 120.862 73.2359 120.608 73.0152C120.353 72.7947 119.874 72.5545 119.542 72.4817C119.21 72.4087 118.938 72.2635 118.938 72.1588C118.938 72.054 118.803 71.9683 118.638 71.9683C118.473 71.9683 118.264 71.8419 118.173 71.6872C118.082 71.5327 117.659 71.2928 117.232 71.1542C116.805 71.0154 116.456 70.8336 116.456 70.7498C116.456 70.666 116.13 70.4697 115.732 70.3135C115.334 70.1574 115.008 69.9611 115.008 69.8777C115.008 69.7941 114.729 69.6644 114.388 69.5896C114.046 69.5147 113.767 69.3736 113.767 69.2762C113.767 69.179 113.441 68.9814 113.043 68.8375C112.645 68.6935 112.319 68.5086 112.319 68.4265C112.319 68.3443 111.97 68.1638 111.543 68.025C111.117 67.8864 110.693 67.6464 110.602 67.4919C110.511 67.3372 110.302 67.2108 110.137 67.2108C109.972 67.2108 109.837 67.1252 109.837 67.0203C109.837 66.9156 109.557 66.7683 109.214 66.6933C108.872 66.618 108.462 66.4264 108.303 66.2674C107.926 65.8913 106.127 64.9355 105.795 64.9355C105.653 64.9355 105.487 64.8045 105.426 64.6446C105.364 64.4847 105.029 64.2911 104.68 64.2146C104.331 64.1379 104.045 63.9912 104.045 63.8888C104.045 63.7862 103.812 63.6439 103.528 63.5725C103.244 63.5012 103.011 63.3657 103.011 63.2716C103.011 63.1777 102.685 62.9828 102.287 62.8388C101.889 62.6949 101.563 62.5099 101.563 62.4282C101.563 62.3463 101.278 62.2166 100.928 62.1399C100.579 62.0634 100.246 61.8753 100.187 61.7225C100.128 61.5694 99.8091 61.3847 99.4771 61.3119C99.1453 61.2389 98.8739 61.1028 98.8739 61.009C98.8739 60.9156 98.5947 60.7416 98.2534 60.6227C97.9121 60.5037 97.6328 60.3157 97.6328 60.205C97.6328 60.0946 97.3536 59.9425 97.0123 59.8677C96.671 59.7928 96.3917 59.6643 96.3917 59.5824C96.3917 59.5007 96.066 59.3158 95.6678 59.1718C95.2696 59.0278 94.9438 58.838 94.9438 58.7496C94.9438 58.6615 94.5715 58.4665 94.1164 58.3163C93.6613 58.1661 93.289 57.9651 93.289 57.8695C93.289 57.7739 93.1608 57.6957 93.004 57.6957C92.8474 57.6957 92.6072 57.5609 92.4703 57.396C92.3336 57.2312 91.8826 56.9844 91.4683 56.8477C91.0538 56.7109 90.5991 56.4968 90.4577 56.3717C89.8601 55.8432 89.6321 55.7005 88.9452 55.4245C88.547 55.2644 88.1747 55.0816 88.1178 55.0181C87.6824 54.532 86.8792 54.3533 86.1746 54.5858C85.7645 54.7212 85.4287 54.9004 85.4287 54.9841C85.4287 55.0679 85.1029 55.2642 84.7048 55.4204C84.3066 55.5766 83.9808 55.7729 83.9808 55.8562C83.9808 55.9398 83.7015 56.0695 83.3602 56.1444C83.0189 56.2192 82.7397 56.3436 82.7397 56.4205C82.7397 56.4975 82.4373 56.6938 82.0674 56.8568C81.6976 57.0198 81.2721 57.2752 81.1219 57.4246C80.9715 57.5737 80.7155 57.6957 80.5531 57.6957C80.3905 57.6957 80.2575 57.7714 80.2575 57.8639C80.2575 57.9566 79.9317 58.1601 79.5335 58.3163C79.1353 58.4725 78.8096 58.6688 78.8096 58.7521C78.8096 58.8357 78.538 58.9635 78.206 59.0365C77.874 59.1093 77.3945 59.3495 77.1401 59.57C76.8859 59.7907 76.5524 59.9711 76.3991 59.9711C76.2459 59.9711 76.1205 60.0569 76.1205 60.1618C76.1205 60.2669 75.7716 60.4661 75.3448 60.6049C74.9183 60.7435 74.4947 60.9834 74.4037 61.1379C74.3127 61.2926 74.1033 61.419 73.9383 61.419C73.7734 61.419 73.6383 61.4974 73.6383 61.5932C73.6383 61.689 73.266 61.8788 72.8109 62.0152C72.3559 62.1515 71.9835 62.3463 71.9835 62.4481C71.9835 62.5501 71.6577 62.7511 71.2596 62.8951C70.8614 63.0391 70.5356 63.224 70.5356 63.3057C70.5356 63.3876 70.2563 63.5161 69.915 63.5909C69.5737 63.6658 69.2945 63.7986 69.2945 63.8861C69.2945 63.9734 68.7594 64.3273 68.1051 64.6726C65.8153 65.881 65.4674 66.074 65.3646 66.1931C65.3075 66.2591 64.9585 66.4448 64.5887 66.6056C64.2188 66.7665 63.9164 66.9684 63.9164 67.0544C63.9164 67.1405 63.7834 67.2108 63.6208 67.2108C63.4584 67.2108 63.2024 67.3312 63.052 67.478C62.9018 67.6251 62.4763 67.8692 62.1065 68.0204C61.7366 68.1716 61.4342 68.365 61.4342 68.45C61.4342 68.5353 61.0214 68.7206 60.5166 68.8619C60.0119 69.0031 59.5494 69.2481 59.4888 69.4059C59.4282 69.5637 59.2362 69.693 59.0619 69.693C58.8877 69.693 58.7452 69.7712 58.7452 69.8667C58.7452 69.9623 58.3776 70.1617 57.9285 70.31C57.4795 70.4581 57.0668 70.697 57.0118 70.8408C56.9566 70.9844 56.626 71.1647 56.2771 71.2413C55.9279 71.318 55.6424 71.4589 55.6424 71.5546C55.6424 71.6504 55.3632 71.79 55.0219 71.8649C54.6806 71.9398 54.4013 72.0918 54.4013 72.2023C54.4013 72.3129 54.1221 72.501 53.7808 72.6199C53.4395 72.7388 53.1603 72.9128 53.1603 73.0063C53.1603 73.1 52.8889 73.2361 52.5571 73.3091C52.2251 73.3819 51.9057 73.5667 51.847 73.7197C51.7882 73.8726 51.4548 74.0606 51.1058 74.1371C50.7567 74.2139 50.4712 74.3436 50.4712 74.4255C50.4712 74.5072 50.1456 74.6919 49.7479 74.8359C49.3 74.9978 48.9829 75.2696 48.9155 75.5497C48.8553 75.7984 48.8317 85.5352 48.863 97.1868L48.9198 118.371L49.5367 118.577C49.8759 118.69 50.2782 118.907 50.4307 119.06C50.5829 119.212 50.8264 119.337 50.9714 119.337C51.1166 119.337 51.45 119.523 51.7123 119.751C51.9746 119.978 52.3147 120.164 52.4679 120.164C52.6212 120.164 52.7466 120.25 52.7466 120.355C52.7466 120.459 53.0252 120.606 53.3659 120.681C53.7065 120.756 54.0555 120.936 54.1415 121.082C54.2276 121.228 54.6471 121.46 55.0736 121.599C55.5003 121.738 55.8493 121.937 55.8493 122.042C55.8493 122.147 55.9746 122.233 56.1279 122.233C56.2812 122.233 56.6146 122.413 56.8689 122.634C57.1233 122.854 57.6027 123.094 57.9347 123.167C58.2667 123.24 58.5383 123.385 58.5383 123.49C58.5383 123.595 58.6809 123.681 58.855 123.681C59.0294 123.681 59.2203 123.807 59.2797 123.961C59.3388 124.116 59.7548 124.363 60.2039 124.512C60.653 124.66 61.0205 124.842 61.0205 124.916C61.0205 124.991 61.3463 125.179 61.7445 125.335C62.1427 125.492 62.4685 125.688 62.4685 125.771C62.4685 125.855 62.7477 125.985 63.089 126.059C63.4303 126.134 63.7096 126.27 63.7096 126.361C63.7096 126.452 64.012 126.65 64.3818 126.801C64.7517 126.952 65.1772 127.196 65.3273 127.344C65.4777 127.49 65.7338 127.611 65.8962 127.611C66.0587 127.611 66.1918 127.686 66.1918 127.779C66.1918 127.872 66.5175 128.075 66.9157 128.231C67.3139 128.387 67.6397 128.576 67.6397 128.651C67.6397 128.725 68.012 128.898 68.4671 129.034C68.9222 129.171 69.2945 129.356 69.2945 129.447C69.2945 129.538 69.8085 129.872 70.4365 130.19C71.0647 130.507 71.6244 130.842 71.6805 130.932C71.7365 131.023 72.125 131.21 72.5437 131.348C73.2561 131.583 73.4619 131.706 74.1184 132.287C74.2609 132.413 74.723 132.642 75.1456 132.794C75.568 132.947 75.9137 133.146 75.9137 133.237C75.9137 133.328 76.0562 133.403 76.2304 133.403C76.4047 133.403 76.5975 133.534 76.6592 133.694C76.7206 133.855 77.0098 134.046 77.3016 134.119C77.5933 134.192 78.4244 134.593 79.1482 135.009L80.4644 135.766V155.579C80.4644 166.477 80.3851 175.393 80.2883 175.393C79.9654 175.393 78.7094 174.907 78.4548 174.683C77.8558 174.157 77.6318 174.017 76.9479 173.742C76.5497 173.582 76.1774 173.399 76.1205 173.336C76.0636 173.272 75.7378 173.081 75.3965 172.911C75.0552 172.741 74.7295 172.554 74.6726 172.497C74.6157 172.44 74.0342 172.114 73.3804 171.773C72.7267 171.432 72.1914 171.09 72.191 171.014C72.1908 170.938 71.9111 170.814 71.5698 170.739C71.2285 170.664 70.9493 170.534 70.9493 170.451C70.9493 170.367 70.6235 170.171 70.2253 170.015C69.8271 169.859 69.5013 169.67 69.5013 169.596C69.5013 169.521 69.129 169.338 68.6739 169.187C68.2189 169.037 67.8465 168.851 67.8465 168.774C67.8465 168.598 65.758 167.533 65.4132 167.533C65.2725 167.533 65.1575 167.435 65.1575 167.315C65.1575 167.195 64.8783 167 64.537 166.881C64.1957 166.762 63.9164 166.588 63.9164 166.495C63.9164 166.401 63.645 166.265 63.3132 166.192C62.9812 166.119 62.6631 165.937 62.6058 165.789C62.5487 165.639 62.2393 165.452 61.9185 165.371C61.5974 165.29 61.2876 165.162 61.2294 165.086C61.0836 164.894 59.9999 164.28 59.314 164.001C59.0011 163.873 58.7452 163.692 58.7452 163.599C58.7452 163.505 58.4597 163.366 58.1106 163.289C57.7616 163.213 57.4282 163.025 57.3694 162.872C57.3107 162.719 56.9913 162.534 56.6593 162.461C56.3275 162.388 56.0561 162.262 56.0561 162.18C56.0561 162.098 55.7304 161.913 55.3322 161.769C54.934 161.625 54.6082 161.424 54.6082 161.322C54.6082 161.22 54.2359 161.025 53.7808 160.889C53.3257 160.753 52.9534 160.563 52.9534 160.467C52.9534 160.371 52.8183 160.293 52.6535 160.293C52.4884 160.293 52.2791 160.167 52.1881 160.012C52.097 159.857 51.6736 159.617 51.2469 159.479C50.8204 159.34 50.4712 159.141 50.4712 159.036C50.4712 158.931 50.3459 158.845 50.1926 158.845C50.0393 158.845 49.7059 158.665 49.4516 158.444C49.1972 158.223 48.7178 157.983 48.3858 157.91C48.0538 157.837 47.7822 157.71 47.7822 157.626C47.7822 157.543 47.4564 157.346 47.0582 157.19C46.66 157.034 46.3342 156.84 46.3342 156.758C46.3342 156.677 46.0784 156.512 45.7654 156.393C45.1345 156.152 44.0138 155.509 43.85 155.293C43.7918 155.217 43.4894 155.09 43.1777 155.012C42.866 154.934 42.6109 154.793 42.6109 154.699C42.6109 154.605 42.2852 154.41 41.887 154.266C41.4888 154.122 41.163 153.937 41.163 153.855C41.163 153.773 40.814 153.592 40.3873 153.454C39.9608 153.315 39.5372 153.075 39.4462 152.921C39.3551 152.766 39.1458 152.64 38.9807 152.64C38.8159 152.64 38.6808 152.561 38.6808 152.465C38.6808 152.37 38.3085 152.18 37.8534 152.043C37.3983 151.907 37.026 151.712 37.026 151.61C37.026 151.508 36.7002 151.307 36.302 151.163C35.9039 151.019 35.5781 150.835 35.5781 150.753C35.5781 150.671 35.3067 150.544 34.9749 150.471C34.6429 150.399 34.3235 150.214 34.2648 150.061C34.206 149.908 33.8726 149.72 33.5236 149.643C33.1745 149.567 32.889 149.42 32.889 149.318C32.889 149.215 32.6563 149.073 32.3719 149.001C32.0875 148.93 31.8548 148.794 31.8548 148.7C31.8548 148.606 31.529 148.412 31.1308 148.268C30.7326 148.124 30.4068 147.939 30.4068 147.857C30.4068 147.775 30.1214 147.645 29.7722 147.569C29.4233 147.492 29.0898 147.304 29.0311 147.151C28.9723 146.998 28.653 146.813 28.321 146.741C27.9892 146.668 27.7178 146.531 27.7178 146.438C27.7178 146.344 27.4386 146.17 27.0972 146.051C26.7559 145.932 26.4767 145.752 26.4767 145.65C26.4767 145.549 26.0928 145.35 25.6234 145.21C24.8302 144.972 24.6184 144.851 23.9281 144.24C23.7856 144.114 23.3235 143.885 22.9009 143.733C22.4785 143.58 22.1329 143.381 22.1329 143.29C22.1329 143.199 22.0046 143.124 21.8478 143.124C21.6912 143.124 21.4474 142.985 21.3063 142.815C21.165 142.645 20.6882 142.398 20.2466 142.265C19.8052 142.133 19.4438 141.958 19.4438 141.876C19.4438 141.794 19.1646 141.611 18.8233 141.47C18.482 141.328 18.2027 141.138 18.2027 141.047C18.2027 140.956 17.9235 140.821 17.5822 140.746C17.2409 140.671 16.9616 140.541 16.9616 140.458C16.9616 140.374 16.6358 140.178 16.2377 140.022C15.8395 139.866 15.5137 139.681 15.5137 139.611C15.5137 139.541 15.1709 139.36 14.7521 139.209C14.0289 138.947 13.815 138.815 13.1426 138.212C12.9839 138.069 12.7545 137.953 12.6325 137.953C12.4757 137.953 12.411 125.941 12.411 96.8486V55.7439L12.9603 55.2719C13.2623 55.0123 13.6347 54.7998 13.7877 54.7998C13.9406 54.7998 14.0657 54.7142 14.0657 54.6093C14.0657 54.5047 14.3444 54.3578 14.6851 54.2829C15.0257 54.2083 15.3747 54.0279 15.4607 53.8821C15.5468 53.7364 15.9663 53.5037 16.3928 53.3651C16.8195 53.2263 17.1685 53.0271 17.1685 52.9221C17.1685 52.8172 17.2938 52.7314 17.4471 52.7314C17.6004 52.7314 17.9338 52.551 18.188 52.3303C18.4425 52.1098 18.9219 51.8696 19.2539 51.7968C19.5859 51.7238 19.8575 51.6013 19.8575 51.5244C19.8575 51.4474 20.1599 51.2511 20.5298 51.0881C20.8994 50.9251 21.3251 50.6697 21.4753 50.5203C21.6257 50.3712 21.8818 50.2492 22.0441 50.2492C22.2067 50.2492 22.3397 50.1735 22.3397 50.081C22.3397 49.9883 22.6655 49.7848 23.0637 49.6286C23.4619 49.4724 23.7877 49.2788 23.7877 49.1988C23.7877 49.1185 24.0427 48.9888 24.3544 48.9106C24.6661 48.8325 24.9686 48.6949 25.0267 48.6051C25.1808 48.3664 27.524 47.1464 27.8283 47.1464C27.9708 47.1464 28.1408 47.0068 28.2064 46.8362C28.2717 46.6655 28.4678 46.5259 28.6422 46.5259C28.8164 46.5259 28.9589 46.4402 28.9589 46.3354C28.9589 46.2307 29.2305 46.0855 29.5625 46.0125C29.8945 45.9397 30.383 45.7012 30.6484 45.4827C30.9138 45.2643 31.2291 45.0039 31.3492 44.9042C31.4694 44.8045 31.9348 44.6034 32.3835 44.4574C32.8321 44.3113 33.2696 44.0729 33.3557 43.9272C33.4417 43.7814 33.7907 43.601 34.1314 43.5264C34.472 43.4515 34.7507 43.3063 34.7507 43.2039C34.7507 43.1013 34.9834 42.959 35.2678 42.8876C35.5522 42.8162 35.7849 42.6808 35.7849 42.5866C35.7849 42.4927 36.1107 42.2979 36.5089 42.1539C36.9071 42.0099 37.2329 41.825 37.2329 41.7433C37.2329 41.6614 37.5183 41.5317 37.8675 41.455C38.2164 41.3784 38.5488 41.1931 38.6063 41.0435C38.6638 40.8938 38.9367 40.7147 39.2128 40.6454C39.4892 40.5761 39.7151 40.4354 39.7151 40.3328C39.7151 40.2304 40.0005 40.0838 40.3497 40.007C40.6986 39.9305 41.0321 39.7425 41.0908 39.5896C41.1496 39.4365 41.4689 39.2518 41.8009 39.179C42.1327 39.106 42.4041 38.9794 42.4041 38.8975C42.4041 38.8158 42.7299 38.6309 43.1281 38.4869C43.5262 38.3429 43.852 38.153 43.852 38.0647C43.852 37.9766 44.2244 37.7815 44.6794 37.6314C45.1345 37.4812 45.5068 37.2801 45.5068 37.1846C45.5068 37.089 45.6494 37.0108 45.8235 37.0108C45.9979 37.0108 46.194 36.8712 46.2593 36.7005C46.3249 36.5299 46.495 36.3903 46.6375 36.3903C46.9417 36.3903 49.2849 35.1703 49.439 34.9316C49.4972 34.8418 49.7996 34.7042 50.1113 34.626C50.423 34.5479 50.6781 34.4182 50.6781 34.3379C50.6781 34.2579 51.0038 34.0642 51.402 33.9081C51.8002 33.7519 52.126 33.5484 52.126 33.4557C52.126 33.3632 52.259 33.2875 52.4216 33.2875C52.584 33.2875 52.8401 33.1671 52.9904 33.0203C53.1406 32.8732 53.5661 32.6291 53.9359 32.4779C54.3058 32.3267 54.6082 32.136 54.6082 32.0541C54.6082 31.9722 54.9696 31.7968 55.411 31.6646C55.8526 31.5322 56.3294 31.2848 56.4707 31.1146C56.6117 30.9445 56.8556 30.8053 57.0122 30.8053C57.169 30.8053 57.2972 30.7271 57.2972 30.6316C57.2972 30.536 57.6648 30.3366 58.1139 30.1883C58.5629 30.0402 58.9756 29.8013 59.0306 29.6575C59.0859 29.514 59.4164 29.3336 59.7654 29.2571C60.1145 29.1803 60.4 29.0422 60.4 28.9497C60.4 28.8572 60.6327 28.7232 60.9171 28.6518C61.2015 28.5805 61.4342 28.4379 61.4342 28.3353C61.4342 28.2325 61.76 28.0408 62.1582 27.9094C62.5564 27.7781 62.8822 27.5921 62.8822 27.4962C62.8822 27.4002 63.1536 27.2622 63.4853 27.1892C63.8173 27.1164 64.1367 26.9317 64.1955 26.7786C64.2542 26.6257 64.5876 26.4377 64.9366 26.3612C65.2858 26.2844 65.5712 26.1463 65.5712 26.0538C65.5712 25.9613 65.7867 25.8316 66.0503 25.7657C66.3136 25.6995 66.7467 25.4566 67.0127 25.226C67.2785 24.9954 67.6215 24.8067 67.7748 24.8067C67.928 24.8067 68.0534 24.7211 68.0534 24.6162C68.0534 24.5115 68.332 24.3647 68.6727 24.2898C69.0134 24.2151 69.3623 24.0347 69.4484 23.8889C69.5344 23.7433 69.9539 23.5106 70.3805 23.372C70.8072 23.2332 71.1561 23.034 71.1561 22.9289C71.1561 22.8241 71.2844 22.7382 71.4412 22.7382C71.5978 22.7382 71.8416 22.599 71.9827 22.429C72.124 22.2587 72.6008 22.0113 73.0424 21.879C73.4838 21.7468 73.8452 21.5602 73.8452 21.4644C73.8452 21.3687 73.9803 21.2903 74.1451 21.2903C74.3102 21.2903 74.5195 21.1639 74.6105 21.0092C74.7015 20.8546 75.1252 20.6147 75.5517 20.4761C75.9784 20.3373 76.3274 20.1555 76.3274 20.0717C76.3274 19.9879 76.6532 19.7916 77.0513 19.6355C77.4495 19.4793 77.7753 19.283 77.7753 19.1996C77.7753 19.1161 78.0546 18.9864 78.3959 18.9115C78.7372 18.8366 79.0164 18.7123 79.0164 18.6354C79.0164 18.5584 79.3188 18.3621 79.6887 18.1991C80.0585 18.0361 80.484 17.7807 80.6342 17.6313C80.7846 17.4822 81.0406 17.3601 81.203 17.3601C81.3656 17.3601 81.4986 17.2844 81.4986 17.192C81.4986 17.0993 81.8244 16.8958 82.2226 16.7396C82.6208 16.5834 82.9465 16.3871 82.9465 16.3038C82.9465 16.2202 83.2181 16.0924 83.5501 16.0193C83.8821 15.9465 84.3616 15.7064 84.616 15.4859C84.8702 15.2652 85.2037 15.0848 85.357 15.0848C85.5102 15.0848 85.6356 14.9996 85.6356 14.8951C85.6356 14.5439 86.7354 14.318 87.3379 14.5455C87.653 14.6645 87.9109 14.8271 87.9109 14.9069ZM87.757 69.5898C87.8431 69.7426 88.192 69.9288 88.5327 70.0035C88.8734 70.0784 89.152 70.2236 89.152 70.3259C89.152 70.4285 89.3847 70.5709 89.6691 70.6422C89.9536 70.7136 90.1863 70.8491 90.1863 70.9432C90.1863 71.0371 90.5121 71.2319 90.9102 71.3759C91.3084 71.5199 91.6342 71.7048 91.6342 71.7865C91.6342 71.8684 91.9135 71.9969 92.2548 72.0718C92.5961 72.1466 92.8753 72.2861 92.8753 72.3812C92.8753 72.4766 93.4572 72.8491 94.1681 73.2092C95.7743 74.023 96.6708 74.5192 96.8054 74.6692C96.8623 74.7325 97.2113 74.9066 97.5811 75.0562C97.951 75.2057 98.2534 75.395 98.2534 75.4767C98.2534 75.5586 98.6257 75.7483 99.0808 75.8985C99.5359 76.0486 99.9082 76.2497 99.9082 76.3453C99.9082 76.4408 100.036 76.519 100.193 76.519C100.35 76.519 100.59 76.6539 100.727 76.8187C100.864 76.9836 101.312 77.2293 101.723 77.365C102.423 77.5961 102.628 77.7192 103.284 78.2996C103.427 78.4258 103.889 78.6539 104.311 78.8066C104.734 78.9594 105.079 79.1412 105.079 79.211C105.079 79.2807 105.405 79.4656 105.803 79.6218C106.202 79.7779 106.527 79.9815 106.527 80.0741C106.527 80.1666 106.627 80.2423 106.75 80.2423C106.872 80.2423 107.599 80.6084 108.365 81.0558C109.132 81.5035 110.002 81.9306 110.3 82.0055C110.598 82.0802 110.892 82.2725 110.953 82.4328C111.015 82.5933 111.198 82.7245 111.36 82.7245C111.522 82.7245 111.711 82.8718 111.78 83.0517C111.849 83.2317 111.905 89.5147 111.905 97.014C111.905 108.789 111.864 110.649 111.606 110.649C111.44 110.649 111.231 110.776 111.14 110.93C111.049 111.085 110.626 111.325 110.199 111.463C109.772 111.602 109.423 111.784 109.423 111.868C109.423 111.951 109.097 112.148 108.699 112.304C108.301 112.46 107.975 112.656 107.975 112.74C107.975 112.823 107.696 112.953 107.355 113.028C107.013 113.103 106.734 113.244 106.734 113.341C106.734 113.439 106.408 113.636 106.01 113.78C105.612 113.924 105.286 114.109 105.286 114.191C105.286 114.273 104.937 114.454 104.511 114.593C104.084 114.731 103.66 114.971 103.569 115.126C103.478 115.28 103.269 115.407 103.104 115.407C102.939 115.407 102.804 115.492 102.804 115.597C102.804 115.702 102.532 115.847 102.2 115.92C101.868 115.993 101.389 116.233 101.135 116.454C100.88 116.674 100.547 116.855 100.394 116.855C100.24 116.855 100.115 116.94 100.115 117.045C100.115 117.15 99.7661 117.35 99.3393 117.488C98.9128 117.627 98.4933 117.86 98.4073 118.005C98.3212 118.151 97.9723 118.332 97.6316 118.406C97.2909 118.481 97.0123 118.626 97.0123 118.729C97.0123 118.831 96.7796 118.974 96.4952 119.045C96.2107 119.116 95.978 119.252 95.978 119.346C95.978 119.44 95.6523 119.635 95.2541 119.779C94.8559 119.923 94.5301 120.108 94.5301 120.189C94.5301 120.271 94.2446 120.401 93.8955 120.478C93.5465 120.554 93.2131 120.742 93.1543 120.895C93.0956 121.048 92.7762 121.233 92.4442 121.306C92.1124 121.379 91.8411 121.515 91.8411 121.608C91.8411 121.702 91.5618 121.876 91.2205 121.995C90.8792 122.114 90.6 122.302 90.6 122.412C90.6 122.523 90.3207 122.675 89.9794 122.75C89.6381 122.825 89.3589 122.964 89.3589 123.06C89.3589 123.156 89.0802 123.295 88.7396 123.37C88.3989 123.445 88.0344 123.66 87.9293 123.847C87.7053 124.248 86.1149 124.328 85.8815 123.951C85.8009 123.82 85.4724 123.648 85.1513 123.567C84.8305 123.486 84.5211 123.299 84.464 123.149C84.4067 123.001 84.0886 122.819 83.7566 122.746C83.4248 122.673 83.1534 122.537 83.1534 122.443C83.1534 122.35 82.8741 122.176 82.5328 122.057C82.1915 121.938 81.9123 121.75 81.9123 121.639C81.9123 121.529 81.633 121.377 81.2917 121.302C80.9504 121.227 80.6712 121.099 80.6712 121.017C80.6712 120.935 80.3454 120.75 79.9472 120.606C79.549 120.462 79.2233 120.272 79.2233 120.184C79.2233 120.096 78.8509 119.901 78.3959 119.751C77.9408 119.6 77.5685 119.399 77.5685 119.304C77.5685 119.208 77.4402 119.13 77.2834 119.13C77.1268 119.13 76.883 118.991 76.7419 118.821C76.6006 118.65 76.1238 118.403 75.6822 118.271C75.2408 118.139 74.8794 117.963 74.8794 117.881C74.8794 117.799 74.6002 117.616 74.2589 117.475C73.9176 117.334 73.6383 117.144 73.6383 117.053C73.6383 116.962 73.3591 116.826 73.0178 116.751C72.6765 116.676 72.3972 116.552 72.3972 116.475C72.3972 116.398 72.0948 116.203 71.725 116.043C71.3551 115.882 71.0062 115.696 70.9493 115.63C70.8924 115.564 70.3109 115.231 69.6571 114.89C69.0035 114.548 68.4681 114.211 68.4677 114.141C68.4675 114.07 68.0542 113.897 67.5495 113.756C67.0448 113.614 66.5823 113.369 66.5217 113.212C66.4611 113.054 66.2691 112.924 66.0947 112.924C65.9206 112.924 65.7781 112.846 65.7781 112.751C65.7781 112.655 65.4105 112.456 64.9614 112.307C64.5123 112.159 64.0997 111.92 64.0447 111.777C63.9894 111.633 63.6589 111.453 63.3099 111.376C62.9608 111.299 62.6753 111.159 62.6753 111.063C62.6753 110.967 62.3961 110.827 62.0548 110.753L61.4342 110.616V96.9659C61.4342 85.4113 61.4795 83.2702 61.7298 83.0201C61.8922 82.8575 62.1203 82.7245 62.2366 82.7245C62.3528 82.7245 62.5223 82.5981 62.6133 82.4434C62.7043 82.2889 63.1279 82.0489 63.5544 81.9103C63.9812 81.7715 64.3301 81.5897 64.3301 81.5059C64.3301 81.4222 64.6559 81.2259 65.0541 81.0697C65.4523 80.9135 65.7781 80.7172 65.7781 80.6339C65.7781 80.5503 66.0573 80.4206 66.3986 80.3457C66.7399 80.2708 67.0192 80.1298 67.0192 80.0323C67.0192 79.9351 67.3449 79.7376 67.7431 79.5936C68.1413 79.4497 68.4671 79.2647 68.4671 79.1826C68.4671 79.1005 68.8163 78.9199 69.2428 78.7811C69.6695 78.6425 70.0929 78.4026 70.1839 78.2481C70.275 78.0933 70.4843 77.967 70.6494 77.967C70.8142 77.967 70.9493 77.8813 70.9493 77.7765C70.9493 77.6718 71.2209 77.5266 71.5529 77.4536C71.8849 77.3808 72.3643 77.1406 72.6188 76.9201C72.873 76.6994 73.2064 76.519 73.3597 76.519C73.513 76.519 73.6383 76.4332 73.6383 76.3283C73.6383 76.2232 73.9875 76.024 74.414 75.8852C74.8407 75.7466 75.26 75.5139 75.3461 75.3683C75.4321 75.2225 75.7811 75.0421 76.1218 74.9674C76.4624 74.8926 76.7411 74.7474 76.7411 74.645C76.7411 74.5424 76.9738 74.4001 77.2582 74.3287C77.5426 74.2573 77.7753 74.1218 77.7753 74.0277C77.7753 73.9338 78.1011 73.739 78.4993 73.595C78.8975 73.451 79.2233 73.2661 79.2233 73.1844C79.2233 73.1025 79.5019 72.9742 79.8426 72.8994C80.1832 72.8247 80.5322 72.6534 80.6183 72.5188C80.7043 72.3843 81.3097 72.0083 81.964 71.6829C82.6183 71.3577 83.1534 71.017 83.1534 70.9258C83.1534 70.8348 83.4326 70.6987 83.7739 70.6238C84.1152 70.5489 84.3945 70.4093 84.3945 70.3135C84.3945 70.2178 84.6731 70.0784 85.0138 70.0035C85.3545 69.9288 85.7034 69.7488 85.7895 69.6036C86.1318 69.0263 87.4343 69.017 87.757 69.5898Z" fill="white"/>
<path d="M200.797 79.8125V116H195.336V79.8125H200.797ZM209.492 116V79.8125H217.086C220.727 79.8125 223.602 80.1719 225.711 80.8906C227.977 81.5938 230.031 82.7891 231.875 84.4766C235.609 87.8828 237.477 92.3594 237.477 97.9062C237.477 103.469 235.531 107.969 231.641 111.406C229.688 113.125 227.641 114.32 225.5 114.992C223.5 115.664 220.664 116 216.992 116H209.492ZM214.953 110.867H217.414C219.867 110.867 221.906 110.609 223.531 110.094C225.156 109.547 226.625 108.68 227.938 107.492C230.625 105.039 231.969 101.844 231.969 97.9062C231.969 93.9375 230.641 90.7188 227.984 88.25C225.594 86.0469 222.07 84.9453 217.414 84.9453H214.953V110.867ZM264.336 84.9453H249.828V93.6406H263.914V98.7734H249.828V110.867H264.336V116H244.367V79.8125H264.336V84.9453ZM292.766 107.211H277.273L273.242 116H267.359L285.266 77.5391L302.539 116H296.562L292.766 107.211ZM290.539 102.078L285.172 89.7734L279.547 102.078H290.539ZM327.359 79.8125V110.867H338V116H321.898V79.8125H327.359ZM366.453 107.211H350.961L346.93 116H341.047L358.953 77.5391L376.227 116H370.25L366.453 107.211ZM364.227 102.078L358.859 89.7734L353.234 102.078H364.227ZM380.773 116V79.8125H386.211C388.633 79.8125 390.562 80 392 80.375C393.453 80.75 394.68 81.3828 395.68 82.2734C396.695 83.1953 397.5 84.3438 398.094 85.7188C398.703 87.1094 399.008 88.5156 399.008 89.9375C399.008 92.5312 398.016 94.7266 396.031 96.5234C397.953 97.1797 399.469 98.3281 400.578 99.9688C401.703 101.594 402.266 103.484 402.266 105.641C402.266 108.469 401.266 110.859 399.266 112.812C398.062 114.016 396.711 114.852 395.211 115.32C393.57 115.773 391.516 116 389.047 116H380.773ZM386.234 95.3516H387.945C389.977 95.3516 391.461 94.9062 392.398 94.0156C393.352 93.1094 393.828 91.7812 393.828 90.0312C393.828 88.3281 393.344 87.0391 392.375 86.1641C391.406 85.2734 390 84.8281 388.156 84.8281H386.234V95.3516ZM386.234 110.867H389.609C392.078 110.867 393.891 110.383 395.047 109.414C396.266 108.367 396.875 107.039 396.875 105.43C396.875 103.867 396.289 102.555 395.117 101.492C393.977 100.445 391.938 99.9219 389 99.9219H386.234V110.867Z" fill="white"/>
</svg>
